# xmcd
#
# Track frame offsets: 
#        150
#        12630
#        33965
#        49592
#        71902
#        90970
#        109875
#        143642
#
# Disc length: 4440 seconds
#
# Revision: 3
# Processed by: cddbd v1.5.2PL0 Copyright (c) Steve Scherf et al.
# Submitted via: ExactAudioCopy v1.3
#
DISCID=65115608
DTITLE=Ensemble Planeta - etoile
DYEAR=2003
DGENRE=Classical
TTITLE0=Ave Maria
TTITLE1=Greensleeves
TTITLE2=Les anges dans nos campagnes
TTITLE3=Ancient Oath
TTITLE4=Pavane pour une infante defunte
TTITLE5=Sicilienne
TTITLE6=O holy night
TTITLE7=不明なトラック
EXTD=
EXTT0=
EXTT1=
EXTT2=
EXTT3=
EXTT4=
EXTT5=
EXTT6=
EXTT7=
PLAYORDER=
